<svg width="218" height="58" viewBox="0 0 218 58" fill="none" xmlns="http://www.w3.org/2000/svg">
<path fill-rule="evenodd" clip-rule="evenodd" d="M35.0736 23.383C35.0736 22.9129 35.4546 22.5319 35.9247 22.5319H41.4681V28.0113C41.4681 28.4813 41.0871 28.8623 40.617 28.8623C40.147 28.8623 39.766 28.4813 39.766 28.0113V25.4135L32.4836 32.5745H35.0046C35.4746 32.5745 35.8557 32.9555 35.8557 33.4255C35.8557 33.8956 35.4746 34.2766 35.0046 34.2766H29.5532V29.2339C29.5532 28.7638 29.9342 28.3828 30.4043 28.3828C30.8743 28.3828 31.2553 28.7638 31.2553 29.2339V31.3951L38.5377 24.234H35.9247C35.4546 24.234 35.0736 23.853 35.0736 23.383Z" fill="white"/>
<path fill-rule="evenodd" clip-rule="evenodd" d="M43.3404 18.9574H23.0851C22.051 18.9574 21.2128 19.7957 21.2128 20.8298V40.7447C21.2128 41.7787 22.051 42.617 23.0851 42.617H43.3404C44.3745 42.617 45.2128 41.7787 45.2128 40.7447V20.8298C45.2128 19.7957 44.3745 18.9574 43.3404 18.9574ZM23.0851 16.7447C20.829 16.7447 19 18.5736 19 20.8298V40.7447C19 43.0008 20.829 44.8298 23.0851 44.8298H43.3404C45.5966 44.8298 47.4255 43.0008 47.4255 40.7447V20.8298C47.4255 18.5736 45.5966 16.7447 43.3404 16.7447H23.0851Z" fill="white"/>
<path fill-rule="evenodd" clip-rule="evenodd" d="M24.7021 28.7447C25.2662 28.7447 25.7234 29.2019 25.7234 29.766V36.4894C25.7234 37.4294 26.4855 38.1915 27.4255 38.1915H34.5745C35.1385 38.1915 35.5957 38.6487 35.5957 39.2128C35.5957 39.7768 35.1385 40.234 34.5745 40.234H27.4255C25.3574 40.234 23.6809 38.5575 23.6809 36.4894V29.766C23.6809 29.2019 24.1381 28.7447 24.7021 28.7447Z" fill="white"/>
<path fill-rule="evenodd" clip-rule="evenodd" d="M24.7021 23.4681C25.2662 23.4681 25.7234 23.0108 25.7234 22.4468V15.7234C25.7234 14.7833 26.4855 14.0213 27.4255 14.0213H34.5745C35.1385 14.0213 35.5957 13.564 35.5957 13C35.5957 12.436 35.1385 11.9787 34.5745 11.9787H27.4255C25.3574 11.9787 23.6809 13.6553 23.6809 15.7234V22.4468C23.6809 23.0108 24.1381 23.4681 24.7021 23.4681Z" fill="white"/>
<path fill-rule="evenodd" clip-rule="evenodd" d="M51 23.4681C50.436 23.4681 49.9787 23.0108 49.9787 22.4468V15.7234C49.9787 14.7833 49.2167 14.0213 48.2766 14.0213H41.1277C40.5636 14.0213 40.1064 13.564 40.1064 13C40.1064 12.436 40.5636 11.9787 41.1277 11.9787H48.2766C50.3447 11.9787 52.0213 13.6553 52.0213 15.7234V22.4468C52.0213 23.0108 51.564 23.4681 51 23.4681Z" fill="white"/>
<path fill-rule="evenodd" clip-rule="evenodd" d="M51 28.8298C50.436 28.8298 49.9787 29.287 49.9787 29.8511V36.5745C49.9787 37.5145 49.2167 38.2766 48.2766 38.2766H41.1277C40.5636 38.2766 40.1064 38.7338 40.1064 39.2979C40.1064 39.8619 40.5636 40.3191 41.1277 40.3191H48.2766C50.3447 40.3191 52.0213 38.6426 52.0213 36.5745V29.8511C52.0213 29.287 51.564 28.8298 51 28.8298Z" fill="white"/>
<path d="M68.557 22.192L68.074 23.872H71.581L71.098 22.192C70.874 21.464 70.657 20.715 70.447 19.945C70.251 19.175 70.055 18.412 69.859 17.656H69.775C69.593 18.426 69.397 19.196 69.187 19.966C68.991 20.722 68.781 21.464 68.557 22.192ZM63.958 29.5L68.431 15.766H71.287L75.76 29.5H73.198L72.127 25.783H67.507L66.436 29.5H63.958ZM77.453 29.5V15.766H81.779C82.801 15.766 83.711 15.899 84.509 16.165C85.307 16.431 85.937 16.872 86.399 17.488C86.861 18.104 87.092 18.944 87.092 20.008C87.092 21.016 86.861 21.849 86.399 22.507C85.937 23.165 85.314 23.655 84.53 23.977C83.746 24.299 82.857 24.46 81.863 24.46H79.889V29.5H77.453ZM79.889 22.507H81.674C83.69 22.507 84.698 21.674 84.698 20.008C84.698 19.14 84.432 18.545 83.9 18.223C83.382 17.887 82.612 17.719 81.59 17.719H79.889V22.507ZM89.6756 29.5V15.766H92.1116V29.5H89.6756ZM99.8065 29.5V15.766H104.132C105.154 15.766 106.064 15.899 106.862 16.165C107.66 16.431 108.29 16.872 108.752 17.488C109.214 18.104 109.445 18.944 109.445 20.008C109.445 21.016 109.214 21.849 108.752 22.507C108.29 23.165 107.667 23.655 106.883 23.977C106.099 24.299 105.21 24.46 104.216 24.46H102.242V29.5H99.8065ZM102.242 22.507H104.027C106.043 22.507 107.051 21.674 107.051 20.008C107.051 19.14 106.785 18.545 106.253 18.223C105.735 17.887 104.965 17.719 103.943 17.719H102.242V22.507ZM112.029 29.5V15.766H116.67C117.622 15.766 118.476 15.892 119.232 16.144C120.002 16.396 120.604 16.823 121.038 17.425C121.486 18.013 121.71 18.818 121.71 19.84C121.71 20.89 121.458 21.737 120.954 22.381C120.464 23.025 119.806 23.487 118.98 23.767L122.256 29.5H119.526L116.565 24.124H114.465V29.5H112.029ZM114.465 22.192H116.418C117.356 22.192 118.07 21.996 118.56 21.604C119.064 21.198 119.316 20.61 119.316 19.84C119.316 19.056 119.064 18.51 118.56 18.202C118.07 17.88 117.356 17.719 116.418 17.719H114.465V22.192ZM129.791 29.752C128.601 29.752 127.551 29.465 126.641 28.891C125.731 28.303 125.017 27.477 124.499 26.413C123.995 25.335 123.743 24.054 123.743 22.57C123.743 21.086 123.995 19.819 124.499 18.769C125.017 17.719 125.731 16.914 126.641 16.354C127.551 15.794 128.601 15.514 129.791 15.514C130.995 15.514 132.052 15.794 132.962 16.354C133.872 16.914 134.579 17.719 135.083 18.769C135.601 19.819 135.86 21.086 135.86 22.57C135.86 24.054 135.601 25.335 135.083 26.413C134.579 27.477 133.872 28.303 132.962 28.891C132.052 29.465 130.995 29.752 129.791 29.752ZM129.791 27.631C130.869 27.631 131.73 27.176 132.374 26.266C133.018 25.342 133.34 24.11 133.34 22.57C133.34 21.03 133.018 19.826 132.374 18.958C131.73 18.076 130.869 17.635 129.791 17.635C128.713 17.635 127.852 18.076 127.208 18.958C126.564 19.826 126.242 21.03 126.242 22.57C126.242 24.11 126.564 25.342 127.208 26.266C127.852 27.176 128.713 27.631 129.791 27.631ZM138.607 29.5V15.766H142.282C144.382 15.766 146.02 16.333 147.196 17.467C148.372 18.601 148.96 20.302 148.96 22.57C148.96 24.852 148.379 26.581 147.217 27.757C146.055 28.919 144.452 29.5 142.408 29.5H138.607ZM141.043 27.526H142.114C143.5 27.526 144.571 27.127 145.327 26.329C146.083 25.517 146.461 24.264 146.461 22.57C146.461 20.89 146.083 19.665 145.327 18.895C144.571 18.125 143.5 17.74 142.114 17.74H141.043V27.526ZM156.877 29.752C155.827 29.752 154.91 29.542 154.126 29.122C153.342 28.702 152.733 28.03 152.299 27.106C151.879 26.182 151.669 24.971 151.669 23.473V15.766H154.105V23.662C154.105 24.656 154.217 25.447 154.441 26.035C154.679 26.609 155.008 27.022 155.428 27.274C155.848 27.512 156.331 27.631 156.877 27.631C157.437 27.631 157.927 27.512 158.347 27.274C158.781 27.022 159.117 26.609 159.355 26.035C159.607 25.447 159.733 24.656 159.733 23.662V15.766H162.064V23.473C162.064 24.971 161.854 26.182 161.434 27.106C161.014 28.03 160.412 28.702 159.628 29.122C158.858 29.542 157.941 29.752 156.877 29.752ZM170.974 29.752C169.826 29.752 168.783 29.479 167.845 28.933C166.907 28.387 166.158 27.589 165.598 26.539C165.052 25.475 164.779 24.187 164.779 22.675C164.779 21.177 165.059 19.896 165.619 18.832C166.193 17.754 166.956 16.935 167.908 16.375C168.86 15.801 169.91 15.514 171.058 15.514C171.926 15.514 172.696 15.689 173.368 16.039C174.04 16.389 174.593 16.795 175.027 17.257L173.725 18.832C173.375 18.468 172.983 18.181 172.549 17.971C172.129 17.747 171.653 17.635 171.121 17.635C170.379 17.635 169.714 17.838 169.126 18.244C168.552 18.636 168.097 19.203 167.761 19.945C167.439 20.687 167.278 21.576 167.278 22.612C167.278 24.18 167.621 25.412 168.307 26.308C168.993 27.19 169.91 27.631 171.058 27.631C171.674 27.631 172.22 27.505 172.696 27.253C173.172 26.987 173.606 26.644 173.998 26.224L175.3 27.757C174.74 28.401 174.096 28.898 173.368 29.248C172.654 29.584 171.856 29.752 170.974 29.752ZM177.593 29.5V15.766H185.867V17.824H180.029V21.331H184.964V23.389H180.029V27.442H186.077V29.5H177.593ZM188.892 29.5V15.766H193.533C194.485 15.766 195.339 15.892 196.095 16.144C196.865 16.396 197.467 16.823 197.901 17.425C198.349 18.013 198.573 18.818 198.573 19.84C198.573 20.89 198.321 21.737 197.817 22.381C197.327 23.025 196.669 23.487 195.843 23.767L199.119 29.5H196.389L193.428 24.124H191.328V29.5H188.892ZM191.328 22.192H193.281C194.219 22.192 194.933 21.996 195.423 21.604C195.927 21.198 196.179 20.61 196.179 19.84C196.179 19.056 195.927 18.51 195.423 18.202C194.933 17.88 194.219 17.719 193.281 17.719H191.328V22.192Z" fill="white"/>
<path d="M67.38 43.62C66.8333 43.62 66.3433 43.4867 65.91 43.22C65.4833 42.9467 65.1433 42.5567 64.89 42.05C64.6433 41.5433 64.52 40.9333 64.52 40.22C64.52 39.5133 64.6467 38.9067 64.9 38.4C65.1533 37.8933 65.5 37.5033 65.94 37.23C66.38 36.9567 66.8767 36.82 67.43 36.82C67.83 36.82 68.1833 36.9033 68.49 37.07C68.7967 37.23 69.0433 37.4167 69.23 37.63L68.78 38.17C68.6067 37.9833 68.41 37.8333 68.19 37.72C67.97 37.6067 67.72 37.55 67.44 37.55C67.0267 37.55 66.6633 37.66 66.35 37.88C66.0433 38.0933 65.8033 38.3967 65.63 38.79C65.4633 39.1833 65.38 39.6533 65.38 40.2C65.38 40.7467 65.4633 41.2233 65.63 41.63C65.7967 42.03 66.03 42.34 66.33 42.56C66.6367 42.78 66.9967 42.89 67.41 42.89C67.7233 42.89 68.0033 42.8233 68.25 42.69C68.4967 42.5567 68.7233 42.3767 68.93 42.15L69.39 42.67C69.13 42.97 68.8367 43.2033 68.51 43.37C68.1833 43.5367 67.8067 43.62 67.38 43.62ZM72.4229 43.62C72.0296 43.62 71.6596 43.52 71.3129 43.32C70.9729 43.12 70.6962 42.83 70.4829 42.45C70.2762 42.07 70.1729 41.6133 70.1729 41.08C70.1729 40.5333 70.2762 40.07 70.4829 39.69C70.6962 39.31 70.9729 39.02 71.3129 38.82C71.6596 38.62 72.0296 38.52 72.4229 38.52C72.8229 38.52 73.1929 38.62 73.5329 38.82C73.8729 39.02 74.1462 39.31 74.3529 39.69C74.5662 40.07 74.6729 40.5333 74.6729 41.08C74.6729 41.6133 74.5662 42.07 74.3529 42.45C74.1462 42.83 73.8729 43.12 73.5329 43.32C73.1929 43.52 72.8229 43.62 72.4229 43.62ZM72.4229 42.94C72.8429 42.94 73.1796 42.77 73.4329 42.43C73.6929 42.0833 73.8229 41.6333 73.8229 41.08C73.8229 40.52 73.6929 40.0667 73.4329 39.72C73.1796 39.3733 72.8429 39.2 72.4229 39.2C72.0096 39.2 71.6729 39.3733 71.4129 39.72C71.1529 40.0667 71.0229 40.52 71.0229 41.08C71.0229 41.6333 71.1529 42.0833 71.4129 42.43C71.6729 42.77 72.0096 42.94 72.4229 42.94ZM75.9528 45.55V38.64H76.6328L76.7028 39.2H76.7328C76.9528 39.0133 77.1928 38.8533 77.4528 38.72C77.7195 38.5867 77.9961 38.52 78.2828 38.52C78.9095 38.52 79.3861 38.7467 79.7128 39.2C80.0395 39.6467 80.2028 40.2467 80.2028 41C80.2028 41.5467 80.1028 42.0167 79.9028 42.41C79.7095 42.8033 79.4528 43.1033 79.1328 43.31C78.8195 43.5167 78.4761 43.62 78.1028 43.62C77.8761 43.62 77.6495 43.57 77.4228 43.47C77.2028 43.37 76.9795 43.2333 76.7528 43.06L76.7728 43.91V45.55H75.9528ZM77.9628 42.93C78.3628 42.93 78.6928 42.76 78.9528 42.42C79.2195 42.0733 79.3528 41.6 79.3528 41C79.3528 40.4667 79.2528 40.0367 79.0528 39.71C78.8595 39.3767 78.5328 39.21 78.0728 39.21C77.8661 39.21 77.6561 39.2667 77.4428 39.38C77.2361 39.4933 77.0128 39.6567 76.7728 39.87V42.42C76.9928 42.6067 77.2061 42.74 77.4128 42.82C77.6195 42.8933 77.8028 42.93 77.9628 42.93ZM81.4997 43.5V38.64H82.3197V43.5H81.4997ZM81.9197 37.64C81.7597 37.64 81.6264 37.5933 81.5197 37.5C81.4197 37.4 81.3697 37.2667 81.3697 37.1C81.3697 36.94 81.4197 36.81 81.5197 36.71C81.6264 36.61 81.7597 36.56 81.9197 36.56C82.0797 36.56 82.2097 36.61 82.3097 36.71C82.4164 36.81 82.4697 36.94 82.4697 37.1C82.4697 37.2667 82.4164 37.4 82.3097 37.5C82.2097 37.5933 82.0797 37.64 81.9197 37.64ZM84.8306 43.62C84.524 43.62 84.3006 43.5267 84.1606 43.34C84.0273 43.1467 83.9606 42.8733 83.9606 42.52V36.38H84.7806V42.58C84.7806 42.7067 84.804 42.8 84.8506 42.86C84.8973 42.9133 84.9506 42.94 85.0106 42.94C85.0373 42.94 85.0606 42.94 85.0806 42.94C85.1073 42.9333 85.144 42.9267 85.1906 42.92L85.3006 43.54C85.2473 43.5667 85.184 43.5867 85.1106 43.6C85.0373 43.6133 84.944 43.62 84.8306 43.62ZM88.3995 43.62C88.0061 43.62 87.6361 43.52 87.2895 43.32C86.9495 43.12 86.6728 42.83 86.4595 42.45C86.2528 42.07 86.1495 41.6133 86.1495 41.08C86.1495 40.5333 86.2528 40.07 86.4595 39.69C86.6728 39.31 86.9495 39.02 87.2895 38.82C87.6361 38.62 88.0061 38.52 88.3995 38.52C88.7995 38.52 89.1695 38.62 89.5095 38.82C89.8495 39.02 90.1228 39.31 90.3295 39.69C90.5428 40.07 90.6495 40.5333 90.6495 41.08C90.6495 41.6133 90.5428 42.07 90.3295 42.45C90.1228 42.83 89.8495 43.12 89.5095 43.32C89.1695 43.52 88.7995 43.62 88.3995 43.62ZM88.3995 42.94C88.8195 42.94 89.1561 42.77 89.4095 42.43C89.6695 42.0833 89.7995 41.6333 89.7995 41.08C89.7995 40.52 89.6695 40.0667 89.4095 39.72C89.1561 39.3733 88.8195 39.2 88.3995 39.2C87.9861 39.2 87.6495 39.3733 87.3895 39.72C87.1295 40.0667 86.9995 40.52 86.9995 41.08C86.9995 41.6333 87.1295 42.0833 87.3895 42.43C87.6495 42.77 87.9861 42.94 88.3995 42.94ZM93.2934 43.62C92.7734 43.62 92.41 43.47 92.2034 43.17C92.0034 42.87 91.9034 42.48 91.9034 42V39.31H91.1834V38.69L91.9434 38.64L92.0434 37.28H92.7334V38.64H94.0434V39.31H92.7334V42.01C92.7334 42.31 92.7867 42.5433 92.8934 42.71C93.0067 42.87 93.2034 42.95 93.4834 42.95C93.57 42.95 93.6634 42.9367 93.7634 42.91C93.8634 42.8767 93.9534 42.8467 94.0334 42.82L94.1934 43.44C94.06 43.4867 93.9134 43.5267 93.7534 43.56C93.6 43.6 93.4467 43.62 93.2934 43.62Z" fill="white"/>
</svg>
