<svg width="56" height="56" viewBox="0 0 56 56" fill="none" xmlns="http://www.w3.org/2000/svg">
<circle cx="27.5685" cy="27.5685" r="27.5685" fill="#041749"/>
<path fill-rule="evenodd" clip-rule="evenodd" d="M27.5573 22.2198C27.5573 21.7653 27.9258 21.3968 28.3803 21.3968H33.7405V26.6951C33.7405 27.1496 33.3721 27.5181 32.9176 27.5181C32.4631 27.5181 32.0946 27.1496 32.0946 26.6951V24.1832L25.0529 31.1075H27.4906C27.9451 31.1075 28.3136 31.476 28.3136 31.9305C28.3136 32.385 27.9451 32.7534 27.4906 32.7534H22.2193V27.8773C22.2193 27.4228 22.5878 27.0544 23.0423 27.0544C23.4968 27.0544 23.8652 27.4228 23.8652 27.8773V29.9671L30.907 23.0427H28.3803C27.9258 23.0427 27.5573 22.6743 27.5573 22.2198Z" fill="url(#paint0_linear_1203_22367)"/>
<path fill-rule="evenodd" clip-rule="evenodd" d="M35.551 17.9405H15.965C14.9651 17.9405 14.1545 18.7511 14.1545 19.751V39.0078C14.1545 40.0077 14.9651 40.8182 15.965 40.8182H35.551C36.5509 40.8182 37.3614 40.0077 37.3614 39.0078V19.751C37.3614 18.7511 36.5509 17.9405 35.551 17.9405ZM15.965 15.8008C13.7834 15.8008 12.0149 17.5694 12.0149 19.751V39.0078C12.0149 41.1893 13.7834 42.9579 15.965 42.9579H35.551C37.7326 42.9579 39.5011 41.1893 39.5011 39.0078V19.751C39.5011 17.5694 37.7326 15.8008 35.551 15.8008H15.965Z" fill="url(#paint1_linear_1203_22367)"/>
<path fill-rule="evenodd" clip-rule="evenodd" d="M17.5286 27.4043C18.074 27.4043 18.5161 27.8464 18.5161 28.3918V34.8931C18.5161 35.8021 19.253 36.5389 20.162 36.5389H27.0747C27.6201 36.5389 28.0622 36.9811 28.0622 37.5265C28.0622 38.0719 27.6201 38.514 27.0747 38.514H20.162C18.1622 38.514 16.5411 36.8928 16.5411 34.8931V28.3918C16.5411 27.8464 16.9832 27.4043 17.5286 27.4043Z" fill="url(#paint2_linear_1203_22367)"/>
<path fill-rule="evenodd" clip-rule="evenodd" d="M17.5286 22.3021C18.074 22.3021 18.5161 21.8599 18.5161 21.3145V14.8133C18.5161 13.9043 19.253 13.1674 20.162 13.1674H27.0747C27.6201 13.1674 28.0622 12.7253 28.0622 12.1799C28.0622 11.6345 27.6201 11.1924 27.0747 11.1924H20.162C18.1622 11.1924 16.5411 12.8135 16.5411 14.8133V21.3145C16.5411 21.8599 16.9832 22.3021 17.5286 22.3021Z" fill="url(#paint3_linear_1203_22367)"/>
<path fill-rule="evenodd" clip-rule="evenodd" d="M42.9574 22.3021C42.412 22.3021 41.9699 21.8599 41.9699 21.3145V14.8133C41.9699 13.9043 41.233 13.1674 40.324 13.1674H33.4113C32.8659 13.1674 32.4238 12.7253 32.4238 12.1799C32.4238 11.6345 32.8659 11.1924 33.4113 11.1924H40.324C42.3238 11.1924 43.945 12.8135 43.945 14.8133V21.3145C43.945 21.8599 43.5028 22.3021 42.9574 22.3021Z" fill="url(#paint4_linear_1203_22367)"/>
<path fill-rule="evenodd" clip-rule="evenodd" d="M42.9574 27.4866C42.412 27.4866 41.9699 27.9287 41.9699 28.4741V34.9754C41.9699 35.8843 41.233 36.6212 40.324 36.6212H33.4113C32.8659 36.6212 32.4238 37.0634 32.4238 37.6088C32.4238 38.1542 32.8659 38.5963 33.4113 38.5963H40.324C42.3238 38.5963 43.945 36.9751 43.945 34.9754V28.4741C43.945 27.9287 43.5028 27.4866 42.9574 27.4866Z" fill="url(#paint5_linear_1203_22367)"/>
<defs>
<linearGradient id="paint0_linear_1203_22367" x1="16.0473" y1="13.0851" x2="38.2667" y2="42.9579" gradientUnits="userSpaceOnUse">
<stop offset="0.229167" stop-color="#7ADFFA"/>
<stop offset="0.947917" stop-color="#C883FF"/>
</linearGradient>
<linearGradient id="paint1_linear_1203_22367" x1="16.0473" y1="13.0851" x2="38.2667" y2="42.9579" gradientUnits="userSpaceOnUse">
<stop offset="0.229167" stop-color="#7ADFFA"/>
<stop offset="0.947917" stop-color="#C883FF"/>
</linearGradient>
<linearGradient id="paint2_linear_1203_22367" x1="16.0473" y1="13.0851" x2="38.2667" y2="42.9579" gradientUnits="userSpaceOnUse">
<stop offset="0.229167" stop-color="#7ADFFA"/>
<stop offset="0.947917" stop-color="#C883FF"/>
</linearGradient>
<linearGradient id="paint3_linear_1203_22367" x1="16.0473" y1="13.0851" x2="38.2667" y2="42.9579" gradientUnits="userSpaceOnUse">
<stop offset="0.229167" stop-color="#7ADFFA"/>
<stop offset="0.947917" stop-color="#C883FF"/>
</linearGradient>
<linearGradient id="paint4_linear_1203_22367" x1="16.0473" y1="13.0851" x2="38.2667" y2="42.9579" gradientUnits="userSpaceOnUse">
<stop offset="0.229167" stop-color="#7ADFFA"/>
<stop offset="0.947917" stop-color="#C883FF"/>
</linearGradient>
<linearGradient id="paint5_linear_1203_22367" x1="16.0473" y1="13.0851" x2="38.2667" y2="42.9579" gradientUnits="userSpaceOnUse">
<stop offset="0.229167" stop-color="#7ADFFA"/>
<stop offset="0.947917" stop-color="#C883FF"/>
</linearGradient>
</defs>
</svg>
