<svg width="97" height="96" viewBox="0 0 97 96" fill="none" xmlns="http://www.w3.org/2000/svg">
<circle cx="47.7603" cy="47.2603" r="47.2603" fill="#041749"/>
<path fill-rule="evenodd" clip-rule="evenodd" d="M47.7413 38.0903C47.7413 37.3112 48.3729 36.6796 49.1521 36.6796H58.341V45.7624C58.341 46.5415 57.7094 47.1731 56.9303 47.1731C56.1511 47.1731 55.5195 46.5415 55.5195 45.7624V41.4561L43.448 53.3265H47.6269C48.4061 53.3265 49.0377 53.9581 49.0377 54.7372C49.0377 55.5164 48.4061 56.148 47.6269 56.148H38.5905V47.789C38.5905 47.0098 39.2221 46.3782 40.0012 46.3782C40.7804 46.3782 41.412 47.0098 41.412 47.789V51.3714L53.4835 39.5011H49.1521C48.3729 39.5011 47.7413 38.8695 47.7413 38.0903Z" fill="url(#paint0_linear_932_12235)"/>
<path fill-rule="evenodd" clip-rule="evenodd" d="M61.4447 30.7544H27.8687C26.1546 30.7544 24.7651 32.144 24.7651 33.8581V66.8697C24.7651 68.5838 26.1546 69.9734 27.8687 69.9734H61.4447C63.1588 69.9734 64.5483 68.5838 64.5483 66.8697V33.8581C64.5483 32.144 63.1588 30.7544 61.4447 30.7544ZM27.8687 27.0864C24.1289 27.0864 21.0971 30.1182 21.0971 33.8581V66.8697C21.0971 70.6096 24.1289 73.6413 27.8687 73.6413H61.4447C65.1845 73.6413 68.2163 70.6096 68.2163 66.8697V33.8581C68.2163 30.1182 65.1845 27.0864 61.4447 27.0864H27.8687Z" fill="url(#paint1_linear_932_12235)"/>
<path fill-rule="evenodd" clip-rule="evenodd" d="M30.5492 46.9781C31.4841 46.9781 32.2421 47.736 32.2421 48.671V59.8159C32.2421 61.3742 33.5053 62.6375 35.0636 62.6375H46.9139C47.8489 62.6375 48.6068 63.3954 48.6068 64.3304C48.6068 65.2653 47.8489 66.0233 46.9139 66.0233H35.0636C31.6354 66.0233 28.8563 63.2442 28.8563 59.8159V48.671C28.8563 47.736 29.6142 46.9781 30.5492 46.9781Z" fill="url(#paint2_linear_932_12235)"/>
<path fill-rule="evenodd" clip-rule="evenodd" d="M30.5492 38.2314C31.4841 38.2314 32.2421 37.4735 32.2421 36.5385V25.3935C32.2421 23.8353 33.5053 22.572 35.0636 22.572H46.9139C47.8489 22.572 48.6068 21.8141 48.6068 20.8791C48.6068 19.9442 47.8489 19.1862 46.9139 19.1862H35.0636C31.6354 19.1862 28.8563 21.9653 28.8563 25.3935V36.5385C28.8563 37.4735 29.6142 38.2314 30.5492 38.2314Z" fill="url(#paint3_linear_932_12235)"/>
<path fill-rule="evenodd" clip-rule="evenodd" d="M74.1415 38.2314C73.2065 38.2314 72.4486 37.4735 72.4486 36.5385V25.3935C72.4486 23.8353 71.1853 22.572 69.6271 22.572H57.7767C56.8418 22.572 56.0838 21.8141 56.0838 20.8791C56.0838 19.9442 56.8418 19.1862 57.7767 19.1862H69.6271C73.0553 19.1862 75.8344 21.9653 75.8344 25.3935V36.5385C75.8344 37.4735 75.0764 38.2314 74.1415 38.2314Z" fill="url(#paint4_linear_932_12235)"/>
<path fill-rule="evenodd" clip-rule="evenodd" d="M74.1415 47.1192C73.2065 47.1192 72.4486 47.8771 72.4486 48.8121V59.957C72.4486 61.5153 71.1853 62.7785 69.6271 62.7785H57.7767C56.8418 62.7785 56.0838 63.5365 56.0838 64.4714C56.0838 65.4064 56.8418 66.1643 57.7767 66.1643H69.6271C73.0553 66.1643 75.8344 63.3852 75.8344 59.957V48.8121C75.8344 47.8771 75.0764 47.1192 74.1415 47.1192Z" fill="url(#paint5_linear_932_12235)"/>
<defs>
<linearGradient id="paint0_linear_932_12235" x1="28.0098" y1="22.431" x2="66.1002" y2="73.6413" gradientUnits="userSpaceOnUse">
<stop offset="0.229167" stop-color="#7ADFFA"/>
<stop offset="0.947917" stop-color="#C883FF"/>
</linearGradient>
<linearGradient id="paint1_linear_932_12235" x1="28.0098" y1="22.431" x2="66.1002" y2="73.6413" gradientUnits="userSpaceOnUse">
<stop offset="0.229167" stop-color="#7ADFFA"/>
<stop offset="0.947917" stop-color="#C883FF"/>
</linearGradient>
<linearGradient id="paint2_linear_932_12235" x1="28.0098" y1="22.431" x2="66.1002" y2="73.6413" gradientUnits="userSpaceOnUse">
<stop offset="0.229167" stop-color="#7ADFFA"/>
<stop offset="0.947917" stop-color="#C883FF"/>
</linearGradient>
<linearGradient id="paint3_linear_932_12235" x1="28.0098" y1="22.431" x2="66.1002" y2="73.6413" gradientUnits="userSpaceOnUse">
<stop offset="0.229167" stop-color="#7ADFFA"/>
<stop offset="0.947917" stop-color="#C883FF"/>
</linearGradient>
<linearGradient id="paint4_linear_932_12235" x1="28.0098" y1="22.431" x2="66.1002" y2="73.6413" gradientUnits="userSpaceOnUse">
<stop offset="0.229167" stop-color="#7ADFFA"/>
<stop offset="0.947917" stop-color="#C883FF"/>
</linearGradient>
<linearGradient id="paint5_linear_932_12235" x1="28.0098" y1="22.431" x2="66.1002" y2="73.6413" gradientUnits="userSpaceOnUse">
<stop offset="0.229167" stop-color="#7ADFFA"/>
<stop offset="0.947917" stop-color="#C883FF"/>
</linearGradient>
</defs>
</svg>
