<svg width="16" height="16" viewBox="0 0 16 16" fill="none" xmlns="http://www.w3.org/2000/svg">
<path 
    d="M6.95 11.45L12.2375 6.1625L11.1875 5.1125L6.95 9.35L4.8125 7.2125L3.7625 8.2625L6.95 11.45ZM8 15.5C6.9625 15.5 5.9875 15.303 5.075 14.909C4.1625 14.5155 3.36875 13.9813 2.69375 13.3063C2.01875 12.6313 1.4845 11.8375 1.091 10.925C0.697 10.0125 0.5 9.0375 0.5 8C0.5 6.9625 0.697 5.9875 1.091 5.075C1.4845 4.1625 2.01875 3.36875 2.69375 2.69375C3.36875 2.01875 4.1625 1.48425 5.075 1.09025C5.9875 0.69675 6.9625 0.5 8 0.5C9.0375 0.5 10.0125 0.69675 10.925 1.09025C11.8375 1.48425 12.6313 2.01875 13.3063 2.69375C13.9813 3.36875 14.5155 4.1625 14.909 5.075C15.303 5.9875 15.5 6.9625 15.5 8C15.5 9.0375 15.303 10.0125 14.909 10.925C14.5155 11.8375 13.9813 12.6313 13.3063 13.3063C12.6313 13.9813 11.8375 14.5155 10.925 14.909C10.0125 15.303 9.0375 15.5 8 15.5Z" 
    fill="#07A956"
/>
</svg>
