<svg width="300" height="250" viewBox="0 0 300 250" fill="none" xmlns="http://www.w3.org/2000/svg">
<g clip-path="url(#clip0_136_43874)">
<path d="M240.57 180.209H87.1207C83.5119 180.209 80.0457 177.341 80.0457 173.808V54.3625C80.0457 50.8296 83.5119 47.9614 87.1207 47.9614H240.57C244.179 47.9614 247.645 50.8296 247.645 54.3625V173.802C247.618 177.341 244.152 180.209 240.57 180.209Z" fill="white" stroke="#1D1E26" stroke-width="2" stroke-miterlimit="10"/>
<mask id="mask0_136_43874" style="mask-type:alpha" maskUnits="userSpaceOnUse" x="79" y="46" width="170" height="136">
<path d="M240.57 180.209H87.1207C83.5119 180.209 80.0457 177.341 80.0457 173.808V54.3625C80.0457 50.8296 83.5119 47.9614 87.1207 47.9614H240.57C244.179 47.9614 247.645 50.8296 247.645 54.3625V173.802C247.618 177.341 244.152 180.209 240.57 180.209Z" fill="white" stroke="#1D1E26" stroke-width="2" stroke-miterlimit="10"/>
</mask>
<g mask="url(#mask0_136_43874)">
<path d="M78.5704 129.203L149.369 198" stroke="#B4F8F8" stroke-width="2" stroke-linecap="round" stroke-linejoin="round"/>
<path d="M82.563 32.7747L171.066 211.533" stroke="#B4F8F8" stroke-width="2" stroke-linecap="round" stroke-linejoin="round"/>
<path d="M64.2943 155.143L179.062 2.88452" stroke="#B4F8F8" stroke-width="2" stroke-linecap="round" stroke-linejoin="round"/>
<path d="M256.146 76.1978L149.369 211.533" stroke="#B4F8F8" stroke-width="2" stroke-linecap="round" stroke-linejoin="round"/>
<path d="M300.154 117.198L161.764 221.516" stroke="#B4F8F8" stroke-width="2" stroke-linecap="round" stroke-linejoin="round"/>
<path d="M248.15 53.0768L64.2943 178.264" stroke="#B4F8F8" stroke-width="2" stroke-linecap="round" stroke-linejoin="round"/>
<path d="M109.404 9.65369L289.261 173.187" stroke="#B4F8F8" stroke-width="2" stroke-linecap="round" stroke-linejoin="round"/>
<path d="M216.175 211.533L85.9908 -2.18689" stroke="#B4F8F8" stroke-width="2" stroke-linecap="round" stroke-linejoin="round"/>
<path d="M156.225 -5.57153L256.146 107.209" stroke="#B4F8F8" stroke-width="2" stroke-linecap="round" stroke-linejoin="round"/>
<path d="M75.1426 96.4944L293.26 192.363" stroke="#B4F8F8" stroke-width="2" stroke-linecap="round" stroke-linejoin="round"/>
<path d="M202.47 6.26917L121.393 248.753" stroke="#B4F8F8" stroke-width="2" stroke-linecap="round" stroke-linejoin="round"/>
<path d="M240.57 180.209H87.1207C83.5119 180.209 80.0457 177.341 80.0457 173.808V54.3625C80.0457 50.8296 83.5119 47.9614 87.1207 47.9614H240.57C244.179 47.9614 247.645 50.8296 247.645 54.3625V173.802C247.618 177.341 244.152 180.209 240.57 180.209Z" stroke="#1D1E26" stroke-width="2" stroke-miterlimit="10"/>
</g>
<path d="M248.166 58.5823H79.4973V53.8295C79.5066 52.9791 79.6831 52.1388 80.0167 51.3567C80.3504 50.5746 80.8346 49.8661 81.4418 49.2716C82.0489 48.6771 82.7671 48.2084 83.5552 47.8921C84.3433 47.5758 85.1858 47.4183 86.0347 47.4284H241.634C242.483 47.4183 243.324 47.5757 244.112 47.8917C244.899 48.2077 245.617 48.676 246.223 49.27C246.83 49.864 247.314 50.5719 247.647 51.3533C247.981 52.1347 248.157 52.9743 248.166 53.824V58.5823Z" fill="#14CCCC"/>
<path d="M87.8282 55.2362C89.1306 55.2362 90.1865 54.203 90.1865 52.9285C90.1865 51.654 89.1306 50.6208 87.8282 50.6208C86.5257 50.6208 85.4698 51.654 85.4698 52.9285C85.4698 54.203 86.5257 55.2362 87.8282 55.2362Z" fill="#1D1E26"/>
<path d="M96.0439 55.2362C97.3463 55.2362 98.4022 54.203 98.4022 52.9285C98.4022 51.654 97.3463 50.6208 96.0439 50.6208C94.7414 50.6208 93.6855 51.654 93.6855 52.9285C93.6855 54.203 94.7414 55.2362 96.0439 55.2362Z" fill="#1D1E26"/>
<path d="M104.26 55.2362C105.562 55.2362 106.618 54.203 106.618 52.9285C106.618 51.654 105.562 50.6208 104.26 50.6208C102.957 50.6208 101.901 51.654 101.901 52.9285C101.901 54.203 102.957 55.2362 104.26 55.2362Z" fill="#1D1E26"/>
<path d="M248.539 41.4504L252.335 32.9504" stroke="#1D1E26" stroke-width="2" stroke-linecap="round" stroke-linejoin="round"/>
<path d="M252.335 44.1043L263.183 33.4834" stroke="#1D1E26" stroke-width="2" stroke-linecap="round" stroke-linejoin="round"/>
<path d="M255.049 48.3516L263.183 45.1648" stroke="#1D1E26" stroke-width="2" stroke-linecap="round" stroke-linejoin="round"/>
<path d="M251.122 71.7966V119.066" stroke="#1D1E26" stroke-width="2" stroke-linecap="round" stroke-linejoin="round"/>
<path d="M212.353 157.401H115.316C114.544 157.41 113.778 157.266 113.061 156.978C112.345 156.69 111.692 156.263 111.14 155.723C110.587 155.182 110.147 154.537 109.844 153.826C109.54 153.115 109.38 152.35 109.371 151.577V86.6813C109.38 85.908 109.54 85.1441 109.844 84.433C110.147 83.722 110.588 83.0779 111.14 82.5375C111.692 81.9971 112.345 81.571 113.062 81.2836C113.778 80.9963 114.544 80.8532 115.316 80.8626H212.353C213.125 80.8532 213.891 80.9963 214.607 81.2836C215.324 81.571 215.977 81.9971 216.529 82.5375C217.081 83.0779 217.522 83.722 217.825 84.433C218.129 85.1441 218.289 85.908 218.298 86.6813V151.577C218.289 152.35 218.129 153.115 217.825 153.826C217.522 154.537 217.082 155.182 216.53 155.723C215.977 156.263 215.324 156.69 214.608 156.978C213.891 157.266 213.125 157.41 212.353 157.401Z" fill="white" stroke="#1D1E26" stroke-width="2" stroke-linecap="round" stroke-linejoin="round"/>
<path d="M164.336 98.3186H164.517C165.336 98.3186 166.122 98.6445 166.701 99.2246C167.28 99.8048 167.605 100.592 167.605 101.412V136.374C167.605 137.194 167.28 137.981 166.701 138.561C166.122 139.141 165.336 139.467 164.517 139.467H164.336C163.517 139.467 162.732 139.141 162.153 138.561C161.574 137.981 161.249 137.194 161.249 136.374V101.412C161.249 100.593 161.573 99.8076 162.151 99.2285C162.729 98.6494 163.513 98.3241 164.331 98.3241L164.336 98.3186Z" fill="#1D1E26"/>
<path d="M185.205 118.67V118.637C185.205 116.929 183.822 115.544 182.117 115.544H146.77C145.064 115.544 143.682 116.929 143.682 118.637V118.67C143.682 120.379 145.064 121.764 146.77 121.764H182.117C183.822 121.764 185.205 120.379 185.205 118.67Z" fill="#1D1E26"/>
<path d="M21.1591 112.11L58.6837 100.401" stroke="#1D1E26" stroke-width="2" stroke-linecap="round" stroke-linejoin="round"/>
<path d="M161.726 207.093L53.7642 239.994L15.1646 119.418L107.687 91.2527L127.991 101.714L161.726 207.093Z" fill="#B4F8F8" stroke="#1D1E26" stroke-width="2" stroke-linecap="round" stroke-linejoin="round"/>
<path d="M107.199 91.2362L128.298 101.918L112.201 106.863L107.199 91.2362Z" fill="white" stroke="#1D1E26" stroke-width="2" stroke-linecap="round" stroke-linejoin="round"/>
<path d="M114.313 131.791L49.8373 151.571C47.5271 152.29 45.028 152.073 42.8752 150.968C40.7225 149.863 39.0873 147.957 38.3199 145.659C37.9636 144.521 37.8374 143.322 37.9487 142.134C38.0601 140.946 38.4068 139.792 38.9685 138.74C39.5302 137.687 40.2957 136.758 41.2202 136.005C42.1447 135.253 43.2097 134.692 44.3528 134.357L108.828 114.577C111.141 113.859 113.643 114.078 115.797 115.186C117.951 116.294 119.586 118.204 120.351 120.505C120.703 121.643 120.826 122.84 120.712 124.026C120.599 125.212 120.251 126.364 119.689 127.414C119.127 128.464 118.362 129.392 117.439 130.143C116.516 130.895 115.454 131.455 114.313 131.791Z" fill="white"/>
<path d="M123.993 146.945L50.7258 169.434C49.5692 169.798 48.3164 169.692 47.2366 169.141C46.1567 168.589 45.3359 167.635 44.9506 166.483C44.772 165.914 44.7086 165.314 44.7641 164.72C44.8196 164.126 44.9928 163.548 45.2737 163.022C45.5546 162.495 45.9375 162.03 46.3999 161.654C46.8624 161.278 47.3952 160.997 47.9671 160.83L121.234 138.335C122.391 137.972 123.645 138.078 124.725 138.631C125.805 139.183 126.625 140.139 127.009 141.291C127.186 141.861 127.248 142.46 127.192 143.054C127.136 143.648 126.963 144.224 126.682 144.751C126.401 145.277 126.019 145.742 125.557 146.118C125.096 146.495 124.564 146.776 123.993 146.945Z" fill="white"/>
<path d="M128.967 162.483L55.7002 184.978C54.5458 185.342 53.2948 185.239 52.2153 184.691C51.1358 184.143 50.3136 183.192 49.925 182.044C49.7472 181.474 49.6844 180.875 49.7402 180.281C49.796 179.687 49.9694 179.11 50.2502 178.583C50.531 178.057 50.9136 177.592 51.3756 177.216C51.8377 176.839 52.37 176.558 52.9415 176.39L126.208 153.901C127.361 153.538 128.61 153.641 129.688 154.188C130.767 154.736 131.588 155.683 131.978 156.83C132.157 157.399 132.22 157.998 132.165 158.592C132.11 159.186 131.937 159.763 131.657 160.29C131.377 160.816 130.994 161.281 130.533 161.658C130.071 162.035 129.538 162.315 128.967 162.483Z" fill="white"/>
<path d="M134.095 178.505L60.8282 201C59.6709 201.363 58.4175 201.257 57.3375 200.704C56.2575 200.152 55.4372 199.196 55.053 198.044C54.8752 197.474 54.8124 196.875 54.8682 196.281C54.924 195.687 55.0974 195.11 55.3782 194.583C55.659 194.057 56.0415 193.592 56.5036 193.216C56.9657 192.839 57.498 192.558 58.0695 192.39L131.336 169.896C132.494 169.534 133.746 169.64 134.826 170.193C135.906 170.746 136.726 171.7 137.112 172.852C137.29 173.421 137.354 174.021 137.298 174.615C137.243 175.209 137.069 175.787 136.788 176.313C136.508 176.84 136.125 177.305 135.662 177.681C135.2 178.058 134.667 178.338 134.095 178.505Z" fill="white"/>
<path d="M139.223 194.527L85.0366 211.165C83.88 211.527 82.628 211.42 81.5493 210.867C80.4706 210.314 79.6511 209.36 79.2669 208.209C79.0883 207.639 79.0249 207.04 79.0804 206.445C79.1358 205.851 79.3091 205.274 79.59 204.747C79.8709 204.221 80.2538 203.756 80.7162 203.379C81.1787 203.003 81.7115 202.723 82.2834 202.555L136.464 185.918C137.622 185.554 138.875 185.66 139.955 186.213C141.035 186.766 141.855 187.721 142.239 188.874C142.417 189.443 142.48 190.042 142.424 190.637C142.369 191.231 142.195 191.808 141.914 192.334C141.634 192.86 141.251 193.325 140.789 193.702C140.327 194.078 139.795 194.359 139.223 194.527Z" fill="white"/>
<path d="M67.3273 218.352C71.1074 218.352 74.1719 215.35 74.1719 211.648C74.1719 207.946 71.1074 204.945 67.3273 204.945C63.5471 204.945 60.4827 207.946 60.4827 211.648C60.4827 215.35 63.5471 218.352 67.3273 218.352Z" fill="white"/>
<path d="M175.305 185.439C174.181 186.341 173.354 187.56 172.931 188.939C171.614 188.166 170.094 187.81 168.572 187.919C167.049 188.028 165.596 188.596 164.402 189.549C163.278 190.453 162.451 191.675 162.027 193.055C160.712 192.28 159.193 191.924 157.671 192.033C156.15 192.142 154.697 192.711 153.505 193.665C152.515 194.467 151.757 195.52 151.311 196.714L143.633 187.593C142.365 186.103 140.567 185.166 138.622 184.983C136.676 184.799 134.735 185.383 133.212 186.61C132.468 187.205 131.851 187.944 131.396 188.783C130.942 189.621 130.66 190.543 130.567 191.492C130.474 192.442 130.572 193.4 130.855 194.311C131.138 195.222 131.6 196.067 132.214 196.797L159.68 229.423L148.618 231.912C146.949 232.285 145.388 233.037 144.055 234.11C143.342 234.679 142.751 235.386 142.316 236.189C141.881 236.992 141.611 237.874 141.523 238.783C141.435 239.692 141.531 240.61 141.803 241.482C142.076 242.353 142.521 243.161 143.112 243.857C144.315 245.279 146.03 246.167 147.883 246.33L181.503 249.5C189.03 250.24 196.545 247.988 202.431 243.231C204.853 241.298 206.863 238.899 208.342 236.174C209.821 233.45 210.739 230.456 211.041 227.369C211.344 224.283 211.025 221.167 210.104 218.206C209.183 215.245 207.678 212.499 205.678 210.132L185.726 186.439C184.46 184.948 182.663 184.009 180.718 183.822C178.772 183.636 176.831 184.216 175.305 185.439Z" fill="#14CCCC"/>
<path d="M151.212 196.472L166.36 214.588" stroke="white" stroke-width="2" stroke-linecap="round" stroke-linejoin="round"/>
<path d="M161.868 192.912L174.57 208.538" stroke="white" stroke-width="2" stroke-linecap="round" stroke-linejoin="round"/>
<path d="M172.87 188.896L184.053 202.709" stroke="white" stroke-width="2" stroke-linecap="round" stroke-linejoin="round"/>
<path d="M129.417 199.945C127.776 198.252 126.705 196.087 126.356 193.753C126.146 192.25 126.235 190.72 126.618 189.251C127.001 187.783 127.671 186.405 128.589 185.198C129.507 183.991 130.655 182.978 131.966 182.217C133.278 181.457 134.726 180.965 136.229 180.769C138.241 180.474 140.296 180.704 142.193 181.438C144.091 182.171 145.767 183.383 147.06 184.956" stroke="#1D1E26" stroke-width="2" stroke-linecap="round" stroke-linejoin="round"/>
<path d="M272.068 175.033C280.892 168.346 276.11 162.489 273.954 162.038C277.903 159.56 288.055 152.472 286.766 144.17C286.654 143.35 286.398 142.555 286.009 141.824C289.058 140.626 292.289 140.5 295.426 142.187C306.856 148.324 293.402 161.494 290.084 164.566C295.245 164.385 300.291 171.555 292.278 176.835C284.265 182.115 253.81 181.148 253.804 181.148C261.757 180.06 266.748 179.066 272.068 175.033Z" fill="#B4F8F8"/>
<path d="M232.415 180.165C232.415 180.165 260.232 181.264 269.452 174.571C279.406 167.352 274.245 161.934 270.746 161.577C274.245 159.928 286.042 152.011 284.748 143.709C283.453 135.406 273.51 140.643 273.51 140.643C273.51 140.643 304.574 109.423 283.278 99.4944C275.534 95.8845 267.609 107.253 268.163 123.121C266.517 119.148 260.611 115.72 257.66 119.148C254.709 122.577 257.846 131.236 257.846 131.236C257.846 131.236 251.21 123.654 245.128 129.066C239.046 134.478 245.676 149.643 246.971 152.352C243.839 148.56 237.011 144.494 234.258 149.643C230.199 157.247 237.022 171.863 232.415 180.165Z" fill="#14CCCC"/>
<path d="M232.415 180.165C232.415 180.165 277.936 152.011 283.278 99.4944" stroke="white" stroke-width="2" stroke-linecap="round" stroke-linejoin="round"/>
<path d="M268.037 143.231C268.037 143.231 268.903 129.994 257.846 119.165" stroke="white" stroke-width="2" stroke-linecap="round" stroke-linejoin="round"/>
<path d="M258.949 155.802C258.949 155.802 266.139 148.038 284.726 145.692" stroke="white" stroke-width="2" stroke-linecap="round" stroke-linejoin="round"/>
<path d="M254.896 160.494C254.896 160.494 264.477 138.654 245.128 129.088" stroke="white" stroke-width="2" stroke-linecap="round" stroke-linejoin="round"/>
<path d="M246.362 169.165C246.362 169.165 256.113 164.253 275.133 167.516" stroke="white" stroke-width="2" stroke-linecap="round" stroke-linejoin="round"/>
<path d="M244.037 171.247C244.037 171.247 246.406 156.901 236.002 147.775" stroke="white" stroke-width="2" stroke-linecap="round" stroke-linejoin="round"/>
<path d="M39.702 86.5769C39.702 86.5769 38.9452 28.3681 79.2944 8.00546C96.1042 -0.494544 147.082 -9.52202 161.72 31.3736" stroke="#1D1E26" stroke-width="2" stroke-linecap="round" stroke-linejoin="round" stroke-dasharray="10 10"/>
<path d="M143.77 24.445C143.77 24.445 159.801 29.9395 162.587 38.6703C165.729 33.456 167.731 20.6648 167.698 15.6923" stroke="#1D1E26" stroke-width="2" stroke-linecap="round" stroke-linejoin="round" stroke-dasharray="10 10"/>
<path d="M1.08594 107.132L9.46619 112.912" stroke="#1D1E26" stroke-width="2" stroke-linecap="round" stroke-linejoin="round"/>
<path d="M0.899475 115.192L7.65633 116.896" stroke="#1D1E26" stroke-width="2" stroke-linecap="round" stroke-linejoin="round"/>
</g>
<defs>
<clipPath id="clip0_136_43874">
<rect width="300" height="250" fill="white"/>
</clipPath>
</defs>
</svg>
