<svg width="350" height="241" viewBox="0 0 350 241" fill="none" xmlns="http://www.w3.org/2000/svg">
<g clip-path="url(#clip0_1532_22993)">
<path d="M216.049 2.65184C81.4388 -14.699 52.1333 82.9094 76.4219 130.411C90.5152 157.976 23.6359 224.675 100.045 238.893C136.724 245.731 148.013 221.131 183.181 224.706C230.316 229.499 380.474 218.408 300.82 119.644C258.615 67.2495 302.194 13.7549 216.049 2.65184Z" fill="#F5F6FA"/>
<path d="M289.729 25.1183L293.689 16.0605" stroke="#1D1E26" stroke-width="1.24334" stroke-linecap="round" stroke-linejoin="round"/>
<path d="M293.689 27.9476L305.01 16.627" stroke="#1D1E26" stroke-width="1.24334" stroke-linecap="round" stroke-linejoin="round"/>
<path d="M296.518 32.4796L305.01 29.0791" stroke="#1D1E26" stroke-width="1.24334" stroke-linecap="round" stroke-linejoin="round"/>
<path d="M294.435 65.3662V145.176" stroke="#1D1E26" stroke-width="1.24334" stroke-linecap="round" stroke-linejoin="round"/>
<path d="M282.512 32.4668H118.061C113.924 32.4668 110.57 35.8207 110.57 39.9579V165.921C110.57 170.058 113.924 173.412 118.061 173.412H282.512C286.649 173.412 290.003 170.058 290.003 165.921V39.9579C290.003 35.8207 286.649 32.4668 282.512 32.4668Z" fill="#B4F8F8"/>
<mask id="mask0_1532_22993" style="mask-type:alpha" maskUnits="userSpaceOnUse" x="109" y="32" width="181" height="142">
<path d="M281.89 32.4678H117.44C113.302 32.4678 109.948 35.8217 109.948 39.9589V165.922C109.948 170.059 113.302 173.413 117.44 173.413H281.89C286.027 173.413 289.381 170.059 289.381 165.922V39.9589C289.381 35.8217 286.027 32.4678 281.89 32.4678Z" fill="#85DFFF"/>
</mask>
<g mask="url(#mask0_1532_22993)">
<path d="M107.773 97.0166L225.66 172.755" stroke="white" stroke-width="1.24334" stroke-linecap="round" stroke-linejoin="round"/>
<path d="M107.773 -29.4121L225.66 172.755" stroke="white" stroke-width="1.24334" stroke-linecap="round" stroke-linejoin="round"/>
<path d="M108.04 126.763L233.63 -45.3525" stroke="white" stroke-width="1.24334" stroke-linecap="round" stroke-linejoin="round"/>
<path d="M375.432 -45.3525L187.502 172.754" stroke="white" stroke-width="1.24334" stroke-linecap="round" stroke-linejoin="round"/>
<path d="M459.718 -15.1699L208.682 172.873" stroke="white" stroke-width="1.24334" stroke-linecap="round" stroke-linejoin="round"/>
<path d="M361.762 -45.3525L108.04 151.555" stroke="white" stroke-width="1.24334" stroke-linecap="round" stroke-linejoin="round"/>
<path d="M136.251 -45.3525L427.255 172.754" stroke="white" stroke-width="1.24334" stroke-linecap="round" stroke-linejoin="round"/>
<path d="M272.353 172.755L118.024 -44.7861" stroke="white" stroke-width="1.24334" stroke-linecap="round" stroke-linejoin="round"/>
<path d="M202.863 -45.5635L350.945 173.326" stroke="white" stroke-width="1.24334" stroke-linecap="round" stroke-linejoin="round"/>
<path d="M255.842 -45.3525L176.113 172.754" stroke="white" stroke-width="1.24334" stroke-linecap="round" stroke-linejoin="round"/>
<path d="M418.713 -44.7861L413.019 172.755L107.779 52.0265" stroke="white" stroke-width="1.24334" stroke-linecap="round" stroke-linejoin="round"/>
<path d="M275.773 -45.3525L459.718 46.9032" stroke="white" stroke-width="1.24334" stroke-linecap="round" stroke-linejoin="round"/>
<path d="M439.781 -45.3525L287.734 172.754" stroke="white" stroke-width="1.24334" stroke-linecap="round" stroke-linejoin="round"/>
<path d="M269.506 -45.3525L459.718 118.084" stroke="white" stroke-width="1.24334" stroke-linecap="round" stroke-linejoin="round"/>
<path d="M107.773 135.168L145.931 173.326" stroke="white" stroke-width="1.24334" stroke-linecap="round" stroke-linejoin="round"/>
</g>
<path d="M282.512 32.4668H118.061C113.924 32.4668 110.57 35.8207 110.57 39.9579V165.921C110.57 170.058 113.924 173.412 118.061 173.412H282.512C286.649 173.412 290.003 170.058 290.003 165.921V39.9579C290.003 35.8207 286.649 32.4668 282.512 32.4668Z" stroke="#1D1E26" stroke-width="1.24334" stroke-linecap="round" stroke-linejoin="round"/>
<path d="M289.903 43.7878H110.657V38.7212C110.652 37.8273 110.822 36.9411 111.16 36.1133C111.497 35.2855 111.994 34.5324 112.623 33.8971C113.252 33.2619 114 32.757 114.825 32.4113C115.649 32.0657 116.533 31.8861 117.427 31.8828H283.139C284.033 31.8861 284.917 32.0657 285.741 32.4114C286.565 32.7572 287.313 33.2622 287.941 33.8975C288.57 34.5328 289.067 35.286 289.403 36.1138C289.74 36.9415 289.91 37.8276 289.903 38.7212V43.7878Z" fill="white" stroke="#1D1E26" stroke-width="1.24334" stroke-linecap="round" stroke-linejoin="round"/>
<path d="M118.695 40.2195C120.055 40.2195 121.157 39.1173 121.157 37.7577C121.157 36.3981 120.055 35.2959 118.695 35.2959C117.336 35.2959 116.234 36.3981 116.234 37.7577C116.234 39.1173 117.336 40.2195 118.695 40.2195Z" fill="#1D1E26"/>
<path d="M127.268 40.2195C128.628 40.2195 129.73 39.1173 129.73 37.7577C129.73 36.3981 128.628 35.2959 127.268 35.2959C125.909 35.2959 124.806 36.3981 124.806 37.7577C124.806 39.1173 125.909 40.2195 127.268 40.2195Z" fill="#1D1E26"/>
<path d="M135.847 40.2195C137.207 40.2195 138.309 39.1173 138.309 37.7577C138.309 36.3981 137.207 35.2959 135.847 35.2959C134.488 35.2959 133.385 36.3981 133.385 37.7577C133.385 39.1173 134.488 40.2195 135.847 40.2195Z" fill="#1D1E26"/>
<path d="M69.4468 52.4785L79.0267 62.6615" stroke="#1D1E26" stroke-width="1.24334" stroke-linecap="round" stroke-linejoin="round"/>
<path d="M66.8544 63.2334L75.4334 67.4732" stroke="#1D1E26" stroke-width="1.24334" stroke-linecap="round" stroke-linejoin="round"/>
<path d="M254.213 68.126H89.7628C85.6256 68.126 82.2717 71.4799 82.2717 75.6171V201.58C82.2717 205.717 85.6256 209.071 89.7628 209.071H254.213C258.35 209.071 261.704 205.717 261.704 201.58V75.6171C261.704 71.4799 258.35 68.126 254.213 68.126Z" fill="white" stroke="#1D1E26" stroke-width="1.24334" stroke-linecap="round" stroke-linejoin="round"/>
<path d="M157 130.5C157 122.492 163.492 116 171.5 116C179.508 116 186 122.492 186 130.5V165H157V130.5Z" stroke="#1D1E26" stroke-width="4"/>
<path d="M199.728 136.738H143.299C142.029 136.738 141 137.768 141 139.037V175.7C141 176.97 142.029 177.999 143.299 177.999H199.728C200.997 177.999 202.027 176.97 202.027 175.7V139.037C202.027 137.768 200.997 136.738 199.728 136.738Z" fill="#B4F8F8"/>
<path d="M199.728 136.738H143.299C142.029 136.738 141 137.768 141 139.037V175.7C141 176.97 142.029 177.999 143.299 177.999H199.728C200.997 177.999 202.027 176.97 202.027 175.7V139.037C202.027 137.768 200.997 136.738 199.728 136.738Z" fill="#B4F8F8"/>
<path d="M176.556 151.156C176.556 148.371 174.299 146.112 171.513 146.112C168.727 146.112 166.469 148.37 166.469 151.156C166.469 152.816 167.275 154.284 168.513 155.204L166.908 166.608H176.116L174.511 155.204C175.749 154.286 176.555 152.816 176.555 151.156H176.556Z" fill="#1D1E26"/>
<path d="M262.27 79.447H81.7061V74.3804C81.7061 72.5667 82.4265 70.8273 83.709 69.5449C84.9914 68.2625 86.7308 67.542 88.5444 67.542H255.45C257.264 67.542 259.003 68.2625 260.286 69.5449C261.568 70.8273 262.289 72.5667 262.289 74.3804L262.27 79.447Z" fill="#14CCCC"/>
<path d="M90.3908 75.8787C91.7504 75.8787 92.8526 74.7765 92.8526 73.4169C92.8526 72.0573 91.7504 70.9551 90.3908 70.9551C89.0311 70.9551 87.929 72.0573 87.929 73.4169C87.929 74.7765 89.0311 75.8787 90.3908 75.8787Z" fill="#1D1E26"/>
<path d="M98.9698 75.8787C100.329 75.8787 101.432 74.7765 101.432 73.4169C101.432 72.0573 100.329 70.9551 98.9698 70.9551C97.6102 70.9551 96.508 72.0573 96.508 73.4169C96.508 74.7765 97.6102 75.8787 98.9698 75.8787Z" fill="#1D1E26"/>
<path d="M107.543 75.8787C108.902 75.8787 110.004 74.7765 110.004 73.4169C110.004 72.0573 108.902 70.9551 107.543 70.9551C106.183 70.9551 105.081 72.0573 105.081 73.4169C105.081 74.7765 106.183 75.8787 107.543 75.8787Z" fill="#1D1E26"/>
<path d="M81.3579 191.733L79.1199 197.508L79.0018 189.507C74.5146 185.473 69.6087 181.93 64.3677 178.939L62.5027 186.865L60.9237 177.062C55.0013 174.008 48.7188 171.711 42.2238 170.223L41.3038 179.169L38.4876 169.483C32.5546 168.442 26.5046 168.239 20.5151 168.88L22.6972 174.612C22.6972 174.612 20.1297 171.69 17.8357 169.253C11.8489 170.194 6.04275 172.052 0.621704 174.761C4.83697 181.464 9.6854 187.747 15.1004 193.523C18.7869 193.387 22.7345 193.306 22.7345 193.306L17.3446 195.88C22.3694 201.065 27.9386 205.695 33.9556 209.687C37.6856 208.512 42.6155 206.759 42.6155 206.759L36.3988 211.204C42.8581 215.199 50.0047 217.956 57.4734 219.335L64.7904 214.71L61.1537 219.826C71.2993 220.802 82.3277 218.713 93.9343 211.745C92.8277 205.764 88.2771 198.547 81.3579 191.733Z" fill="#B4F8F8"/>
<path d="M0.621704 174.755L93.9157 211.738" stroke="white" stroke-width="1.24334" stroke-linecap="round" stroke-linejoin="round"/>
<path d="M94.7238 194.126L88.8615 197.235L94.357 190.57C93.5257 183.931 92.009 177.396 89.8313 171.069L82.7691 176.191L88.3206 166.947C85.644 160.057 82.1411 153.517 77.889 147.47L70.8704 154.116L75.3526 144.076C71.2775 138.868 66.5061 134.245 61.1723 130.337L58.9405 136.659C58.9405 136.659 58.897 132.351 58.7354 128.652C53.2294 125.005 47.1949 122.227 40.8437 120.415C39.586 129.058 39.1385 137.799 39.5071 146.525C42.6155 149.149 45.8793 152.002 45.8793 152.002L39.6936 150.137C40.1549 158.125 41.4508 166.042 43.5604 173.76C47.4334 175.57 52.6679 177.789 52.6679 177.789L44.4867 176.825C46.9734 184.702 50.6661 192.367 55.9565 199.1L65.151 200.722L58.611 202.221C66.1892 210.532 76.6395 216.985 90.9379 219.851C94.2514 214.138 95.5942 204.844 94.7238 194.126Z" fill="#14CCCC"/>
<path d="M40.8561 120.408L90.9565 219.844" stroke="white" stroke-width="1.24334" stroke-linecap="round" stroke-linejoin="round"/>
<path d="M315.914 213.845C326.383 205.763 320.707 198.645 318.152 198.098C322.833 195.096 334.881 186.504 333.352 176.445C333.221 175.451 332.916 174.487 332.45 173.598C336.075 172.15 339.91 172.001 343.64 174.04C357.199 181.5 341.234 197.439 337.293 201.157C343.417 200.939 349.409 209.63 339.923 216.027C330.436 222.424 294.274 221.249 294.261 221.249C303.673 219.956 309.591 218.744 315.914 213.845Z" fill="white" stroke="#B4F8F8" stroke-width="1.24334" stroke-linecap="round" stroke-linejoin="round"/>
<path d="M268.207 220.062C268.207 220.062 301.218 221.392 312.165 213.28C323.977 204.533 317.853 197.974 313.694 197.539C317.853 195.568 331.847 185.945 330.318 175.886C328.789 165.828 316.977 172.156 316.977 172.156C316.977 172.156 353.842 134.328 328.565 122.292C319.383 117.94 309.977 131.698 310.636 150.945C308.665 146.133 301.665 141.974 298.171 146.133C294.678 150.292 298.389 160.786 298.389 160.786C298.389 160.786 290.512 151.598 283.301 158.162C276.09 164.727 283.954 183.091 285.483 186.374C281.753 181.78 273.671 176.85 270.395 183.091C265.583 192.304 273.678 210.022 268.207 220.062Z" fill="#14CCCC"/>
<path d="M268.207 220.062C268.207 220.062 322.224 185.945 328.565 122.305" stroke="white" stroke-width="1.24334" stroke-linecap="round" stroke-linejoin="round"/>
<path d="M310.487 175.302C310.487 175.302 311.506 159.257 298.389 146.14" stroke="white" stroke-width="1.24334" stroke-linecap="round" stroke-linejoin="round"/>
<path d="M299.701 190.557C299.701 190.557 308.23 181.152 330.318 178.311" stroke="white" stroke-width="1.24334" stroke-linecap="round" stroke-linejoin="round"/>
<path d="M294.889 196.247C294.889 196.247 306.259 169.782 283.301 158.194" stroke="white" stroke-width="1.24334" stroke-linecap="round" stroke-linejoin="round"/>
<path d="M284.762 206.752C284.762 206.752 296.338 200.79 318.917 204.75" stroke="white" stroke-width="1.24334" stroke-linecap="round" stroke-linejoin="round"/>
<path d="M282.002 209.276C282.002 209.276 284.812 191.87 272.465 180.835" stroke="white" stroke-width="1.24334" stroke-linecap="round" stroke-linejoin="round"/>
</g>
<defs>
<clipPath id="clip0_1532_22993">
<rect width="350" height="239.964" fill="white" transform="translate(0 0.438477)"/>
</clipPath>
</defs>
</svg>
